<?xml version="1.0" encoding="UTF-8" standalone="no"?>
<svg viewBox="0 0 263.00037 100" xmlns="http://www.w3.org/2000/svg">
<g transform="translate(-234.5396,-307.1725)">
<path d="m415.2939,406.3624c-4.233-.3504-5.1094-2.0321-4.5689-8.7666 .3149-3.9233.3149-3.9233-6.6851-4.7301-3.85-.4437-14.195-2.3449-22.9889-4.2248-15.9889-3.418-15.9889-3.418-19.8266-.8783-12.8539,8.5063-31.8124,5.6297-44.0371-6.6818-12.4817-12.5704-41.3664-10.2652-71.6862,5.7211-10.3287,5.4459-10.4613,5.4017-10.4613-3.4839 0-8.8303 4.3444-18.0222 11.6017-24.5472 5.0406-4.5319 5.0406-4.5319.6084-9.3152-8.2135-8.8641-12.7102-18.6715-12.7102-27.7212 0-5.581-.1802-5.5798 7.567-.0516 28.6247,20.4261 58.3962,24.2722 100.7273,13.0125 32.5166-8.6491 32.2345-8.5107 31.2146-15.3124-.9373-6.2502.2584-7.2106 8.9771-7.2106 3.9826,0 9.4986-.4281 12.2579-.9514s8.5582-1.2132 12.8865-1.5332c11.0144-.8142 16.5127-1.3652 19.0638-1.9102 3.0804-.6582 9.5883,4.3142 12.7843,9.7678 3.5012,5.9743 4.0076,6.3167 15.0102,10.148 23.304,8.1149 47.6588,25.1796 41.4303,29.0291-.5946.3675-.8346,1.6498-.5335,2.8496 .7746,3.0861-2.285,7.5946-7.4694,11.0068-2.4288,1.5985-5.5724,3.6895-6.9857,4.6466-6.0707,4.1111-26.1859,13.1164-32.1292,14.3839-1.4844.3166-5.1693,2.7103-8.1887,5.3193s-8.1049,5.7851-11.3011,7.0579-6.9363,2.8478-8.3113,3.5c-1.375.6522-4.1857,1.0463-6.246.8758z" fill="#e6e603"/>
<path d="m415.2939,406.3624c-4.233-.3504-5.1094-2.0321-4.5689-8.7666 .3149-3.9233.3149-3.9233-6.6851-4.7301-3.85-.4437-14.195-2.3449-22.9889-4.2248-15.9889-3.418-15.9889-3.418-19.8266-.8783-12.8539,8.5063-31.8124,5.6297-44.0371-6.6818-12.4817-12.5704-41.3664-10.2652-71.6862,5.7211-10.3287,5.4459-10.4613,5.4017-10.4613-3.4839 0-8.8303 4.3444-18.0222 11.6017-24.5472 5.0406-4.5319 5.0406-4.5319.6084-9.3152-8.2135-8.8641-12.7102-18.6715-12.7102-27.7212 0-5.581-.1802-5.5798 7.567-.0516 28.6247,20.4261 58.3962,24.2722 100.7273,13.0125 32.5166-8.6491 32.2345-8.5107 31.2146-15.3124-.9373-6.2502.2584-7.2106 8.9771-7.2106 3.9826,0 9.4986-.4281 12.2579-.9514s8.5582-1.2132 12.8865-1.5332c11.0144-.8142 16.5127-1.3652 19.0638-1.9102 3.0804-.6582 9.5883,4.3142 12.7843,9.7678 3.5012,5.9743 4.0076,6.3167 15.0102,10.148 23.304,8.1149 47.6588,25.1796 41.4303,29.0291-.5946.3675-.8346,1.6498-.5335,2.8496 .7746,3.0861-2.285,7.5946-7.4694,11.0068-2.4288,1.5985-5.5724,3.6895-6.9857,4.6466-6.0707,4.1111-26.1859,13.1164-32.1292,14.3839-1.4844.3166-5.1693,2.7103-8.1887,5.3193s-8.1049,5.7851-11.3011,7.0579-6.9363,2.8478-8.3113,3.5c-1.375.6522-4.1857,1.0463-6.246.8758zm25.8374-17.5011c8.7774-1.9808 8.7002-1.8323 4.9097-9.4521-5.6456-11.3491-6.8867-22.5918-3.0701-27.8113 2.1667-2.9632 2.7225-1.2429 1.4207,4.3972-4.3806,18.9776 6.7397,31.8668 21.4721,24.888 21.4381-10.1553 36.7089-23.5956 22.2839-19.6126-6.4392,1.7779-13.4312,2.6291-14.775,1.7986-2.0802-1.2857-.5624-1.9075 9.8082-4.0183 14.3008-2.9107 14.8274-4.586 3.8464-12.2378-40.203-28.0142-70.1421-30.0291-144.9872-9.7572-25.7433,6.9726-47.2674,8.2639-64.357,3.861-9.357-2.4107-9.357-2.4107-11.0829,1.6725-5.1881,12.2742-5.4448,13.7148-3.6904,20.7102 .8967,3.5754 1.6303,7.4987 1.6303,8.7183 0,3.1365 1.7137,3.4443 9.0578,1.6273 19.0688-4.718 45.9252-2.9309 76.9422,5.1201 44.7391,11.6128 50.0194,12.519 69.5,11.9268 8.25-.2508 17.7411-1.0746 21.0914-1.8306zm18.0753-40.3555c-1.5132-1.5132-.6008-5.2195 1.4448-5.8687 2.8129-.8928 5.3167,1.6109 4.4239,4.4239-.6492,2.0456-4.3555,2.9581-5.8687,1.4448zm-96.6667-1.8655c0-3.9554 2.9037-8.4679 5.449-8.4679 1.4031,0 2.551-.3982 2.551-.885 0-2.3504 5.4389-4.2239 13.2853-4.5763 4.5181-.2029 9.6828-.9031 11.4772-1.556s3.8771-.9513 4.6281-.663 1.8514.0383 2.4451-.5554c.7726-.7726 1.5179-.7156 2.6219.2006 1.2532,1.0401 1.8315,1.0401 3.0848,0 1.1991-.9952 1.8093-1.0132 2.7416-.0808s.8691,1.4033-.284,2.116c-1.1597.7167-1.2196,1.1804-.2744,2.1256 1.2918,1.2918 1.8092.5352 2.4796-3.6256 .4409-2.7367 3.2192-2.5332 3.6163.2648 .1768,1.2457.7197,2.0187 1.2063,1.718s.6488-1.1619.3603-1.9137c-.8523-2.2212 1.7714-3.0715 3.2477-1.0525 1.2545,1.7156 1.4419,1.723 3.2049.1275 1.6441-1.4879 2.0224-1.514 3.1012-.2142 .9296,1.1201 1.6489,1.218 2.9552.4022 3.7116-2.318 8.7466,1.8373 5.954,4.9138-5.5921,6.1605-6.0224,6.4827-7.1511,5.354-1.7187-1.7187-2.666-1.3196-3.7719,1.589-1.0896,2.8658-3.3094,1.4374-6.4996-4.1825-.5893-1.0381-1.6362-2.0757-2.3264-2.3058-.9699-.3233-.9537.0746.0714,1.7514 1.1545,1.8885 1.0826,2.3506-.5548,3.565-1.7588,1.3045-1.7008,1.3819.8908,1.1891 3.6718-.2732 4.2209,1.6399.9045,3.151-1.8208.8296-3.0213.8836-3.8761.1742-.8654-.7182-2.1846-.5556-4.3809.5401-1.8234.9096-4.0353,1.2845-5.269.8929-1.1695-.3712-3.203-.0987-4.5188.6055-2.0669,1.1062-2.5731,1.0334-3.7197-.5347-1.0483-1.4337-1.7287-1.5904-3.2377-.7459-1.4615.8179-2.322.6968-3.6611-.5151-1.5995-1.4475-1.9109-1.4393-3.6073.0959-1.6703,1.5116-1.9855,1.5249-3.1412.1324-.7633-.9197-2.0583-1.3022-3.1914-.9426-1.0487.3329-2.5202.0962-3.2698-.526-.9375-.778-1.5653-.8038-2.011-.0826-.3564.5767-2.2106,1.0486-4.1204,1.0486-2.1641,0-3.6892.5652-4.048,1.5-.7541,1.9651-3.3616,1.9402-3.3616-.0321zm-20.9574,38.8308c2.2313-2.5413 2.8394-3.8381 1.9403-4.1378-1.2108-.4036-6.895,5.3894-6.9559,7.0891-.0615,1.7149 1.9663.5217 5.0157-2.9513zm96.9574-64.7958c0-.9301-7.2286-8.5029-8.1164-8.5029-1.5609,0-.9561,1.4564 2.1892,5.2722 2.5972,3.1509 5.9272,4.9659 5.9272,3.2307z" fill="#5f5e14"/>
</g>
</svg>
